<?xml version="1.0" standalone="no"?>
<!DOCTYPE svg PUBLIC "-//W3C//DTD SVG 20010904//EN"
 "http://www.w3.org/TR/2001/REC-SVG-20010904/DTD/svg10.dtd">
<svg version="1.0" xmlns="http://www.w3.org/2000/svg"
 width="70.000000pt" height="70.000000pt" viewBox="0 0 70.000000 70.000000"
 preserveAspectRatio="xMidYMid meet">
<metadata>
Created by potrace 1.14, written by Peter Selinger 2001-2017
</metadata>
<g transform="translate(0.000000,70.000000) scale(0.100000,-0.100000)"
fill="#000000" stroke="none">
<path d="M305 661 c-3 -5 4 -12 14 -16 30 -9 14 -32 -25 -37 -29 -3 -33 -1
-28 14 6 21 -16 24 -48 7 -21 -11 -21 -12 -3 -25 10 -8 17 -15 14 -17 -18 -13
-60 -37 -65 -37 -3 0 -4 9 -1 20 8 31 -13 35 -40 7 -28 -27 -24 -48 7 -40 11
3 20 2 20 -1 0 -5 -24 -47 -37 -65 -2 -3 -9 4 -17 14 -13 18 -14 17 -30 -13
-16 -31 -10 -47 16 -37 11 4 13 -3 10 -30 -5 -42 -15 -51 -35 -30 -23 23 -27
19 -27 -25 0 -29 4 -40 15 -40 8 0 14 3 13 8 -3 7 5 12 21 12 5 0 11 -16 13
-35 3 -30 1 -34 -14 -29 -22 7 -25 -23 -4 -52 14 -18 15 -18 21 -1 10 24 18
21 38 -12 17 -29 9 -50 -12 -36 -23 13 -21 -19 2 -42 27 -28 48 -24 40 7 -3
11 -2 20 1 20 5 0 47 -24 65 -37 3 -2 -4 -9 -14 -17 -18 -13 -18 -14 3 -25 32
-17 54 -14 48 7 -5 15 -1 17 28 14 36 -4 55 -26 30 -36 -28 -11 -13 -26 26
-26 41 0 52 12 25 27 -21 12 -5 29 33 36 30 6 33 5 27 -13 -8 -24 21 -28 51
-6 18 14 18 15 2 21 -25 10 -22 18 11 38 29 17 50 9 36 -12 -13 -21 18 -21 41
0 27 26 33 54 8 45 -35 -14 -34 12 3 63 2 3 9 -4 17 -14 13 -18 14 -18 25 3
18 34 14 54 -9 47 -18 -6 -19 -3 -13 27 7 38 24 54 36 33 15 -27 27 -16 27 25
0 39 -15 54 -26 26 -10 -25 -32 -6 -36 30 -3 29 -1 33 14 28 21 -6 24 16 7 48
-11 21 -12 21 -25 3 -8 -10 -15 -17 -17 -14 -24 33 -35 59 -27 64 6 3 14 4 19
0 22 -13 21 18 0 41 -25 27 -44 27 -44 1 0 -19 -9 -19 -42 -4 -28 12 -29 22
-5 32 16 6 16 7 -2 21 -29 21 -59 18 -52 -4 5 -15 1 -17 -28 -14 -36 4 -55 26
-30 36 8 3 14 10 14 16 0 13 -77 13 -85 1z m153 -100 c175 -89 167 -350 -13
-427 -112 -48 -239 -5 -302 104 -37 63 -38 158 -2 223 63 112 205 157 317 100z"/>
<path d="M328 539 c-27 -15 -23 -57 7 -71 19 -8 28 -8 40 2 21 18 19 57 -4 70
-23 12 -22 12 -43 -1z m32 -34 c0 -8 -4 -15 -10 -15 -5 0 -10 7 -10 15 0 8 5
15 10 15 6 0 10 -7 10 -15z"/>
<path d="M220 475 c-15 -18 -10 -45 13 -59 34 -22 73 27 47 59 -16 19 -44 19
-60 0z m40 -25 c0 -5 -4 -10 -10 -10 -5 0 -10 5 -10 10 0 6 5 10 10 10 6 0 10
-4 10 -10z"/>
<path d="M422 478 c-7 -7 -12 -22 -12 -35 0 -27 42 -42 65 -23 28 23 11 70
-25 70 -9 0 -21 -5 -28 -12z m38 -28 c0 -5 -4 -10 -10 -10 -5 0 -10 5 -10 10
0 6 5 10 10 10 6 0 10 -4 10 -10z"/>
<path d="M160 370 c-24 -44 38 -83 70 -45 10 12 10 21 2 40 -14 31 -56 34 -72
5z m50 -20 c0 -5 -4 -10 -9 -10 -6 0 -13 5 -16 10 -3 6 1 10 9 10 9 0 16 -4
16 -10z"/>
<path d="M320 375 c-15 -18 -10 -45 13 -59 34 -22 73 27 47 59 -16 19 -44 19
-60 0z m40 -25 c0 -5 -4 -10 -10 -10 -5 0 -10 5 -10 10 0 6 5 10 10 10 6 0 10
-4 10 -10z"/>
<path d="M468 365 c-14 -31 3 -55 39 -55 28 0 46 35 31 63 -13 26 -56 22 -70
-8z m52 -15 c0 -5 -7 -10 -15 -10 -8 0 -15 5 -15 10 0 6 7 10 15 10 8 0 15 -4
15 -10z"/>
<path d="M222 278 c-25 -25 -7 -68 29 -68 25 0 42 26 35 55 -7 27 -42 35 -64
13z m38 -28 c0 -5 -4 -10 -10 -10 -5 0 -10 5 -10 10 0 6 5 10 10 10 6 0 10 -4
10 -10z"/>
<path d="M423 283 c-7 -2 -13 -18 -13 -34 0 -22 6 -30 25 -35 29 -7 55 10 55
35 0 33 -32 49 -67 34z m37 -33 c0 -5 -4 -10 -10 -10 -5 0 -10 5 -10 10 0 6 5
10 10 10 6 0 10 -4 10 -10z"/>
<path d="M322 228 c-18 -18 -15 -56 6 -66 27 -15 62 3 62 32 0 37 -44 58 -68
34z m38 -34 c0 -8 -4 -12 -10 -9 -5 3 -10 10 -10 16 0 5 5 9 10 9 6 0 10 -7
10 -16z"/>
</g>
</svg>
